<svg width="189" height="56" viewBox="0 0 189 56" fill="none" xmlns="http://www.w3.org/2000/svg">
<path fill-rule="evenodd" clip-rule="evenodd" d="M68.5463 5.48145H72.5822V25.2503C70.2224 26.7555 67.5207 27.4052 65.0247 27.4052C60.169 27.4052 55.5174 24.3616 55.5174 18.4794C55.5174 12.9391 59.2447 9.14378 64.546 9.14378C65.9135 9.14378 67.4186 9.48565 68.5471 10.3063L68.5463 5.48145ZM68.5463 14.0336C67.7257 13.1109 66.1184 12.4952 64.6481 12.4952C61.6733 12.4952 59.7575 14.9231 59.7575 18.4794C59.7575 21.8308 62.2202 24.0538 65.024 24.0538C66.0844 24.0538 67.4178 23.8821 68.5463 23.1643V14.0336Z" fill="#384236"/>
<path d="M88.401 22.2756C89.4274 23.2672 91.4098 24.3608 93.1888 24.3608C94.762 24.3608 95.7528 23.5062 95.7528 22.3777C95.7528 20.9495 94.215 20.0867 92.5205 19.1359C90.4414 17.9695 88.1265 16.6706 88.1265 14.0328C88.1265 11.434 90.3842 9.07417 94.1455 9.07417C96.9493 9.07417 99.0354 10.3744 99.7879 11.0241L98.2828 13.8279C98.0097 13.5208 96.4365 12.1525 94.6235 12.1525C93.3241 12.1525 92.3666 12.8703 92.3666 13.8967C92.3666 15.1174 93.7183 15.8441 95.2733 16.68C97.3784 17.8117 99.856 19.1436 99.856 22.1727C99.856 25.2511 97.3252 27.4052 93.3922 27.4052C90.4515 27.4052 88.1945 26.2086 86.8943 25.1482L88.3995 22.2756H88.401Z" fill="#384236"/>
<path fill-rule="evenodd" clip-rule="evenodd" d="M63.3479 49.8139C65.6048 49.8139 67.9654 48.6513 69.367 46.8724V48.0326C69.367 53.743 65.9475 54.5644 63.5877 54.5644C61.8775 54.5644 59.7575 54.0857 58.0133 52.9232L57.2267 54.1537C59.3468 55.5212 61.4668 56 63.4508 56C67.0412 56 70.8713 54.1878 70.8713 48.0666V35.1088C69.9478 34.2194 67.5547 32.8859 64.2714 32.8859C59.7915 32.8859 55.5166 35.8266 55.5166 41.435C55.5166 46.8043 59.5177 49.8139 63.3479 49.8139ZM64.2033 34.2882C67.0071 34.2882 68.8201 35.3819 69.367 35.7585L69.3677 35.7593V44.9929C68.2733 46.908 65.7085 48.3783 63.7934 48.3783C59.0745 48.3783 57.0906 44.5822 57.0906 41.4357C57.0906 36.648 60.5781 34.2882 64.2033 34.2882Z" fill="#384236"/>
<path fill-rule="evenodd" clip-rule="evenodd" d="M93.5484 49.8139C88.7607 49.8139 84.9986 46.1546 84.9986 41.3669C84.9986 36.5452 88.7607 32.8859 93.5484 32.8859C98.3361 32.8859 102.063 36.648 102.063 41.3669C102.063 46.0858 98.3361 49.8139 93.5484 49.8139ZM93.4796 34.3222C89.3423 34.3222 86.5378 37.3318 86.5378 41.4698C86.5378 45.4709 89.8551 48.3775 93.4796 48.3775C97.6176 48.3775 100.49 45.5389 100.49 41.3669C100.49 37.2977 97.2417 34.3222 93.4796 34.3222Z" fill="#384236"/>
<path d="M119.404 33.2966H117.899L117.9 46.9064C116.942 47.5909 115.368 48.4116 112.804 48.4116C109.659 48.4116 107.709 46.7015 107.709 43.316V33.2966H106.205V43.6587C106.205 47.7619 108.94 49.8139 112.839 49.8139C115.779 49.8139 117.865 49.0272 119.404 47.5569V33.2966Z" fill="#384236"/>
<path fill-rule="evenodd" clip-rule="evenodd" d="M124.638 55.8066V35.1088C126.519 33.5696 128.913 32.8859 131.238 32.8859C135.718 32.8859 139.993 35.7245 139.993 41.435C139.993 45.8808 137.121 49.8139 132.127 49.8139C129.699 49.8139 127.34 48.6513 126.143 47.3852V55.8066H124.638ZM126.144 45.334C127.272 47.0093 129.563 48.4116 132.128 48.4116C135.548 48.4116 138.421 45.8816 138.421 41.4698C138.421 37.3658 135.651 34.2874 131.033 34.2874C129.118 34.2874 126.998 35.074 126.144 35.7578V45.334Z" fill="#384236"/>
<path d="M82.7749 32.8859C83.116 32.8859 83.4439 32.9068 83.7665 32.9385L83.7672 34.3501C83.4609 34.3114 83.1438 34.2882 82.8097 34.2882C80.2449 34.2882 78.6717 35.1088 77.7141 35.7933V49.4032H76.209V35.1429C77.7482 33.6725 79.8342 32.8859 82.7749 32.8859Z" fill="#384236"/>
<path d="M85.0736 12.9391V9.65581H80.8335V5.48145H76.7976V9.50266H76.796V24.8922C78.78 26.6023 81.2759 27.2861 84.4564 27.2861C84.6507 27.2861 84.8397 27.2774 85.029 27.2688L85.0736 27.2667V23.8534C84.7418 23.9076 84.3976 23.9347 84.0465 23.9347C82.4067 23.9347 81.3479 23.3886 80.8343 23.0127V12.9391H85.0736Z" fill="#384236"/>
<path d="M10.9623 21.9245H21.9245C21.9245 9.81599 12.1085 0 0 0V10.9623C6.05465 10.9623 10.9623 15.8706 10.9623 21.9245Z" fill="#91A78C"/>
<path d="M21.9245 38.3683C15.8699 38.3683 10.9623 33.4599 10.9623 27.406H0C0 39.5145 9.81598 49.3305 21.9245 49.3305C34.033 49.3305 43.8498 39.5145 43.8498 27.406H32.8875C32.8875 33.4607 27.9784 38.3683 21.9245 38.3683Z" fill="#91A78C"/>
<path d="M43.8498 16.4438V5.48151H24.6656V16.4438H43.8498Z" fill="#91A78C"/>
</svg>
