<svg width="206" height="48" viewBox="0 0 206 48" fill="none" xmlns="http://www.w3.org/2000/svg">
<path d="M28.7919 26.381L28.7419 26.331L28.7319 26.321L19.8782 17.4673L11.0245 26.331L10.9645 26.391C8.56347 28.782 7.24292 31.9633 7.24292 35.3547C7.24292 42.3276 12.9153 48 19.8882 48C26.8611 48 32.5335 42.3276 32.5335 35.3547C32.5235 31.9633 31.2029 28.772 28.7919 26.381ZM19.8782 40.757C16.8969 40.757 14.4659 38.326 14.4659 35.3447C14.4659 33.8941 15.0362 32.5336 16.0566 31.5131L19.8782 27.6915L23.6397 31.4531L23.6998 31.5131C24.7302 32.5336 25.2904 33.8941 25.2904 35.3447C25.2904 38.326 22.8594 40.757 19.8782 40.757Z" fill="#FF686F"/>
<path d="M33.8941 14.0158L19.8783 0L5.96249 13.9158L5.85244 14.0258C2.50104 17.3572 0.490206 21.669 0.0800352 26.321C0.0300143 26.9112 0 27.5115 0 28.1117C0 33.4239 2.07086 38.416 5.82243 42.1676C9.57399 45.9191 14.5661 47.99 19.8783 47.99C25.1905 47.99 30.1826 45.9191 33.9341 42.1676C37.6857 38.416 39.7566 33.4239 39.7566 28.1117C39.7566 22.7895 37.6757 17.7874 33.8941 14.0158ZM19.8783 40.757C12.9054 40.757 7.23302 35.0846 7.23302 28.1117C7.23302 27.5015 7.27303 26.9112 7.36307 26.321C7.74323 23.6098 8.98374 21.1188 10.9546 19.158L11.0646 19.0479L19.8783 10.2343L28.682 19.0379L28.802 19.158C31.203 21.549 32.5236 24.7303 32.5236 28.1217C32.5236 35.0846 26.8512 40.757 19.8783 40.757Z" fill="#273990"/>
<path d="M55.7566 12.9905H60.1345C61.5429 12.9905 62.6883 13.0244 63.5706 13.0923C64.47 13.1432 65.3523 13.2959 66.2177 13.5505C67.0831 13.805 67.8892 14.1953 68.6358 14.7213C69.7896 15.5188 70.6635 16.5454 71.2574 17.8011C71.8513 19.0398 72.1483 20.4737 72.1483 22.1026C72.1483 23.7147 71.8513 25.1485 71.2574 26.4042C70.6635 27.6429 69.7896 28.6695 68.6358 29.484C67.9231 29.9931 67.1595 30.3748 66.345 30.6294C65.5475 30.8669 64.733 31.0197 63.9015 31.0875C63.0701 31.1554 62.0435 31.1893 60.8217 31.1893H55.7566V12.9905ZM61.509 27.1169C63.4264 27.1169 64.8348 26.7266 65.7341 25.946C66.6504 25.1485 67.1086 23.8674 67.1086 22.1026C67.1086 20.3209 66.6504 19.0398 65.7341 18.2593C64.8178 17.4617 63.4094 17.063 61.509 17.063H60.669V27.1169H61.509Z" fill="#0E0E0E"/>
<path d="M83.2362 31.6729C81.6921 31.6729 80.377 31.4948 79.291 31.1384C78.222 30.7651 77.3651 30.2052 76.7202 29.4585C76.2621 28.9325 75.9142 28.3471 75.6767 27.7023C75.4561 27.0405 75.3119 26.3363 75.244 25.5897C75.1761 24.8431 75.1422 23.9183 75.1422 22.8153V12.9905H80.08V22.8662C80.08 24.0031 80.1649 24.9025 80.3346 25.5642C80.5212 26.226 80.8351 26.7181 81.2763 27.0405C81.7345 27.346 82.3878 27.4987 83.2362 27.4987C84.2204 27.4987 84.9331 27.295 85.3742 26.8878C85.8154 26.4806 86.0954 25.9036 86.2142 25.157C86.333 24.3934 86.3924 23.248 86.3924 21.7209V12.9905H91.3302V23.808C91.3302 25.6576 91.0502 27.1593 90.4903 28.3132C89.9473 29.467 89.0819 30.3155 87.8941 30.8585C86.7232 31.4014 85.1706 31.6729 83.2362 31.6729Z" fill="#0E0E0E"/>
<path d="M98.7808 12.9905H104.991L111.278 31.1893H106.34L105.424 27.9314H98.3735L97.4318 31.1893H92.4939L98.7808 12.9905ZM104.38 24.3934L102.522 18.3865L101.911 15.943C101.725 16.6727 101.513 17.4872 101.275 18.3865L99.4425 24.3934H104.38Z" fill="#0E0E0E"/>
<path d="M113.001 12.9905H117.964V26.9387H124.124V31.1893H113.001V12.9905Z" fill="#0E0E0E"/>
<path d="M134.526 12.9905H145.675V16.9866H139.362V20.1428H145.318V24.0371H139.362V31.1893H134.526V12.9905Z" fill="#0E0E0E"/>
<path d="M148.371 12.9905H153.335V26.9387H159.494V31.1893H148.371V12.9905Z" fill="#0E0E0E"/>
<path d="M170.405 31.6729C169.302 31.6729 168.216 31.4863 167.147 31.113C166.078 30.7227 165.103 30.1797 164.22 29.484C163.083 28.5677 162.209 27.4817 161.599 26.226C160.988 24.9534 160.682 23.5874 160.682 22.1281C160.682 20.8385 160.92 19.6167 161.395 18.4629C161.887 17.309 162.6 16.2824 163.533 15.3831C164.449 14.4837 165.501 13.7965 166.689 13.3214C167.894 12.8293 169.133 12.5833 170.405 12.5833C171.678 12.5833 172.917 12.8293 174.121 13.3214C175.326 13.8135 176.387 14.5007 177.303 15.3831C178.219 16.2824 178.915 17.309 179.39 18.4629C179.882 19.6167 180.128 20.8385 180.128 22.1281C180.128 23.4177 179.882 24.6395 179.39 25.7933C178.915 26.9472 178.219 27.9738 177.303 28.8731C176.387 29.7725 175.326 30.4682 174.121 30.9603C172.917 31.4354 171.678 31.6729 170.405 31.6729ZM170.405 27.4732C171.322 27.4732 172.145 27.2357 172.874 26.7605C173.604 26.2854 174.164 25.6406 174.554 24.8261C174.961 24.0116 175.165 23.1123 175.165 22.1281C175.165 21.1439 174.961 20.2446 174.554 19.4301C174.147 18.6156 173.578 17.9708 172.849 17.4957C172.119 17.0205 171.305 16.783 170.405 16.783C169.489 16.783 168.666 17.0205 167.936 17.4957C167.224 17.9708 166.664 18.6156 166.256 19.4301C165.849 20.2446 165.646 21.1439 165.646 22.1281C165.646 23.1292 165.841 24.0371 166.231 24.8516C166.621 25.6661 167.173 26.3109 167.885 26.786C168.615 27.2441 169.455 27.4732 170.405 27.4732Z" fill="#0E0E0E"/>
<path d="M180.584 12.9905H185.598L187.685 21.6954C187.889 22.4929 188.075 23.4007 188.245 24.4189C188.381 23.6722 188.593 22.7644 188.881 21.6954L191.172 12.9905H195.168L197.459 21.6445C197.713 22.5778 197.875 23.2565 197.943 23.6807C198.01 24.088 198.044 24.3001 198.044 24.3171C198.316 22.9596 198.503 22.0687 198.604 21.6445L200.742 12.9905H205.757L200.615 31.1893H196.008L193.768 23.4262L193.157 20.9827L192.979 21.7209C192.776 22.6032 192.631 23.1717 192.547 23.4262L190.332 31.1893H185.725L180.584 12.9905Z" fill="#0E0E0E"/>
<path d="M55.7566 47.8852V39.7836H58.9529C59.5674 39.7836 60.0909 39.901 60.5234 40.1357C60.9559 40.3678 61.2856 40.6908 61.5124 41.1049C61.7418 41.5163 61.8565 41.991 61.8565 42.529C61.8565 43.067 61.7405 43.5417 61.5084 43.9531C61.2763 44.3645 60.9401 44.6849 60.4997 44.9144C60.0619 45.1438 59.5318 45.2585 58.9094 45.2585H56.8721V43.8858H58.6325C58.9622 43.8858 59.2338 43.8291 59.4474 43.7157C59.6637 43.5997 59.8245 43.4401 59.93 43.2371C60.0381 43.0314 60.0922 42.7953 60.0922 42.529C60.0922 42.26 60.0381 42.0253 59.93 41.8248C59.8245 41.6218 59.6637 41.4649 59.4474 41.3541C59.2312 41.2407 58.9569 41.184 58.6246 41.184H57.4695V47.8852H55.7566Z" fill="#0E0E0E"/>
<path d="M72.4378 47.8852V39.7836H74.1507V46.473H77.624V47.8852H72.4378Z" fill="#0E0E0E"/>
<path d="M93.2312 39.7836H94.9441V45.0449C94.9441 45.6356 94.803 46.1525 94.5208 46.5956C94.2412 47.0387 93.8496 47.3841 93.3459 47.632C92.8422 47.8773 92.2554 47.9999 91.5855 47.9999C90.9131 47.9999 90.325 47.8773 89.8212 47.632C89.3175 47.3841 88.9259 47.0387 88.6464 46.5956C88.3668 46.1525 88.227 45.6356 88.227 45.0449V39.7836H89.9399V44.8985C89.9399 45.2071 90.0072 45.4814 90.1417 45.7214C90.2788 45.9613 90.4713 46.1499 90.7192 46.287C90.9671 46.4242 91.2559 46.4927 91.5855 46.4927C91.9178 46.4927 92.2066 46.4242 92.4519 46.287C92.6998 46.1499 92.891 45.9613 93.0255 45.7214C93.1626 45.4814 93.2312 45.2071 93.2312 44.8985V39.7836Z" fill="#0E0E0E"/>
<path d="M105.822 39.7836H107.935L110.166 45.2269H110.261L112.492 39.7836H114.604V47.8852H112.943V42.6121H112.875L110.779 47.8456H109.647L107.551 42.5923H107.484V47.8852H105.822V39.7836Z" fill="#0E0E0E"/>
<path d="M125.484 47.8852V39.7836H128.728C129.324 39.7836 129.821 39.872 130.219 40.0487C130.617 40.2254 130.917 40.4706 131.117 40.7844C131.318 41.0956 131.418 41.4543 131.418 41.8604C131.418 42.1769 131.355 42.4551 131.228 42.6951C131.101 42.9325 130.927 43.1276 130.706 43.2806C130.487 43.4309 130.236 43.5377 129.954 43.601V43.6801C130.263 43.6933 130.552 43.7803 130.821 43.9412C131.092 44.1021 131.312 44.3276 131.481 44.6177C131.65 44.9051 131.734 45.248 131.734 45.6462C131.734 46.0761 131.627 46.4598 131.414 46.7973C131.203 47.1323 130.89 47.3973 130.476 47.5925C130.062 47.7876 129.552 47.8852 128.945 47.8852H125.484ZM127.197 46.4848H128.593C129.071 46.4848 129.419 46.3939 129.638 46.2119C129.857 46.0273 129.966 45.782 129.966 45.4761C129.966 45.2519 129.912 45.0541 129.804 44.8827C129.696 44.7113 129.541 44.5768 129.341 44.4792C129.143 44.3816 128.907 44.3328 128.633 44.3328H127.197V46.4848ZM127.197 43.1738H128.467C128.701 43.1738 128.91 43.1329 129.092 43.0512C129.276 42.9668 129.421 42.8481 129.527 42.6951C129.635 42.5422 129.689 42.3589 129.689 42.1453C129.689 41.8525 129.585 41.6165 129.377 41.4372C129.171 41.2578 128.878 41.1682 128.498 41.1682H127.197V43.1738Z" fill="#0E0E0E"/>
<path d="M144.03 39.7836V47.8852H142.318V39.7836H144.03Z" fill="#0E0E0E"/>
<path d="M161.685 39.7836V47.8852H160.205L156.681 42.7861H156.621V47.8852H154.908V39.7836H156.412L159.909 44.8788H159.98V39.7836H161.685Z" fill="#0E0E0E"/>
<path d="M177.941 42.4024C177.885 42.2099 177.808 42.0398 177.707 41.8921C177.607 41.7418 177.485 41.6152 177.34 41.5123C177.197 41.4068 177.034 41.3264 176.849 41.271C176.667 41.2156 176.465 41.1879 176.244 41.1879C175.83 41.1879 175.466 41.2908 175.152 41.4965C174.841 41.7022 174.598 42.0015 174.424 42.3945C174.25 42.7848 174.163 43.2621 174.163 43.8265C174.163 44.3909 174.249 44.8708 174.42 45.2664C174.592 45.662 174.834 45.964 175.148 46.1723C175.462 46.378 175.832 46.4809 176.26 46.4809C176.647 46.4809 176.978 46.4123 177.253 46.2752C177.529 46.1354 177.74 45.9389 177.885 45.6858C178.033 45.4326 178.107 45.1333 178.107 44.7878L178.455 44.8392H176.366V43.5496H179.757V44.5702C179.757 45.2823 179.606 45.8941 179.306 46.4057C179.005 46.9147 178.591 47.3077 178.063 47.5846C177.536 47.8588 176.932 47.996 176.252 47.996C175.492 47.996 174.825 47.8285 174.25 47.4936C173.675 47.156 173.227 46.6774 172.905 46.0576C172.586 45.4352 172.426 44.6968 172.426 43.8423C172.426 43.1857 172.521 42.6002 172.711 42.0859C172.904 41.569 173.173 41.1312 173.518 40.7726C173.864 40.4139 174.266 40.141 174.725 39.9537C175.184 39.7665 175.681 39.6729 176.216 39.6729C176.675 39.6729 177.102 39.7401 177.498 39.8746C177.893 40.0065 178.244 40.1937 178.55 40.4363C178.859 40.679 179.11 40.9677 179.306 41.3027C179.501 41.635 179.626 42.0015 179.681 42.4024H177.941Z" fill="#0E0E0E"/>
</svg>
