<svg width="201" height="42" viewBox="0 0 201 42" fill="none" xmlns="http://www.w3.org/2000/svg">
<g clip-path="url(#clip0_2551_3858)">
<path fill-rule="evenodd" clip-rule="evenodd" d="M27.5065 0.961517C28.1252 0.345874 28.9644 1.65427e-05 29.8395 1.65427e-05H31.5467C31.9808 -0.00135482 32.4109 0.0825499 32.8124 0.246911C33.2139 0.411273 33.5789 0.652856 33.8864 0.957828C34.1938 1.2628 34.4378 1.62516 34.6043 2.02412C34.7707 2.42309 34.8564 2.85082 34.8564 3.2828V38.2784C34.8564 38.7109 34.7707 39.1391 34.6044 39.5387C34.4381 39.9382 34.1943 40.3013 33.887 40.6071C33.5797 40.9129 33.2147 41.1554 32.8132 41.3209C32.4116 41.4864 31.9813 41.5716 31.5467 41.5716H29.8395C28.9635 41.5689 28.1243 41.2207 27.5059 40.6034C26.8875 39.9861 26.5402 39.15 26.5402 38.2784V27.9194C26.5375 27.0478 26.1875 26.2128 25.5671 25.5974C24.9468 24.9821 24.1065 24.6366 23.2305 24.6366H11.6153C10.7403 24.6366 9.90105 24.9824 9.28233 25.5981C8.66361 26.2137 8.31603 27.0487 8.31603 27.9194V38.2784C8.31603 39.15 7.96878 39.9861 7.35036 40.6034C6.73194 41.2207 5.89289 41.5689 5.01692 41.5716H3.29923C2.42326 41.5689 1.58409 41.2207 0.965668 40.6034C0.347247 39.9861 -4.38609e-06 39.15 0 38.2784V3.2828C0 2.41215 0.347587 1.57716 0.966308 0.961517C1.58503 0.345874 2.42423 1.65427e-05 3.29923 1.65427e-05H5.01692C5.89193 1.65427e-05 6.731 0.345874 7.34972 0.961517C7.96844 1.57716 8.31603 2.41215 8.31603 3.2828V13.5168C8.31603 14.3874 8.66361 15.2224 9.28233 15.8381C9.90105 16.4537 10.7403 16.7996 11.6153 16.7996H23.2305C24.1065 16.7996 24.9468 16.454 25.5671 15.8387C26.1875 15.2233 26.5375 14.3884 26.5402 13.5168V3.2828C26.5402 2.41215 26.8878 1.57716 27.5065 0.961517ZM57.8984 17.8105C53.2586 17.8105 49.8965 21.26 49.8965 26.4708C49.8965 31.7128 53.1958 35.1832 57.8984 35.1832C62.6011 35.1832 65.9631 31.6503 65.9631 26.4708C65.9631 21.2913 62.5383 17.8105 57.8984 17.8105ZM43.0374 32.6123C42.2297 30.687 41.8197 28.6196 41.8317 26.5333C41.8197 24.447 42.2297 22.3797 43.0374 20.4543C43.8451 18.529 45.0339 16.7851 46.533 15.3265C48.0322 13.8678 49.811 12.7243 51.7636 11.964C53.7161 11.2037 55.8025 10.8422 57.8984 10.901C67.2305 10.901 74.0278 17.8521 74.0278 26.5333C74.0278 35.2145 67.2305 42.1656 57.8984 42.1656C55.8025 42.2244 53.7161 41.8629 51.7636 41.1026C49.811 40.3423 48.0322 39.1988 46.533 37.7402C45.0339 36.2815 43.8451 34.5376 43.0374 32.6123ZM90.1573 13.3917C90.009 13.5153 89.8294 13.5956 89.6381 13.6238C89.4468 13.652 89.2513 13.6269 89.0735 13.5514C88.8956 13.4758 88.7423 13.3528 88.6305 13.1958C88.5186 13.0389 88.4524 12.8542 88.4396 12.6622C88.4396 12.3858 88.3293 12.1207 88.1329 11.9253C87.9364 11.7299 87.67 11.62 87.3922 11.62H83.6532C83.2172 11.6227 82.7862 11.7114 82.3849 11.8808C81.9836 12.0503 81.62 12.2972 81.3151 12.6073C81.0103 12.9174 80.7703 13.2845 80.6089 13.6875C80.4475 14.0904 80.368 14.5212 80.3749 14.955V38.3305C80.3749 39.2021 80.7221 40.0382 81.3406 40.6555C81.959 41.2728 82.7982 41.6209 83.6741 41.6237H85.1928C86.0697 41.621 86.9099 41.2731 87.53 40.6561C88.1501 40.0391 88.4997 39.2031 88.5025 38.3305V25.9601C88.5025 21.2913 90.7229 17.6854 95.1009 17.6854C98.9133 17.6854 100.338 20.4054 100.338 24.2614V38.2784C100.338 39.15 100.685 39.9861 101.303 40.6034C101.922 41.2207 102.761 41.5688 103.637 41.5716H105.166C106.042 41.5688 106.881 41.2207 107.5 40.6034C108.118 39.9861 108.465 39.15 108.465 38.2784V22.4897C108.465 14.8403 103.574 10.8593 97.4783 10.8593C94.808 10.7993 92.2054 11.6983 90.1468 13.3917H90.1573ZM130.973 17.6854C126.658 17.6854 122.909 21.0307 122.909 26.5333C122.909 31.9629 126.469 35.2457 130.784 35.2457C135.1 35.2457 139.101 31.9004 139.101 26.4082C139.101 21.1037 135.288 17.6854 130.973 17.6854ZM129.643 42.1969C122.081 42.1969 114.844 36.7048 114.844 26.7209L114.854 26.773C114.854 16.3514 122.73 10.9114 130.408 10.9114C134.283 10.9114 137.519 12.3079 139.363 15.3406V14.955C139.363 14.0843 139.71 13.2493 140.329 12.6337C140.948 12.018 141.787 11.6722 142.662 11.6722H144.128C145.003 11.6722 145.842 12.018 146.461 12.6337C147.08 13.2493 147.427 14.0843 147.427 14.955V32.953C147.387 33.2365 147.41 33.5254 147.494 33.799C147.579 34.0726 147.724 34.324 147.919 34.5353C148.113 34.7465 148.352 34.9123 148.618 35.0207C148.884 35.1292 149.172 35.1776 149.459 35.1624H149.868C150.51 35.0994 151.156 35.2347 151.718 35.5498C152.28 35.8649 152.731 36.3445 153.01 36.9236C153.213 37.3069 153.336 37.7268 153.373 38.1585C153.41 38.5901 153.36 39.0248 153.225 39.4367C153.09 39.8487 152.874 40.2295 152.589 40.5569C152.303 40.8842 151.955 41.1513 151.564 41.3423C150.435 41.8617 149.206 42.1319 147.961 42.1344C146.951 42.1486 145.949 41.9519 145.02 41.557C144.091 41.1621 143.255 40.5777 142.567 39.8416C142.017 39.196 141.239 38.7853 140.393 38.6941C139.547 38.603 138.698 38.8384 138.022 39.3518C135.654 41.2537 132.686 42.2615 129.643 42.1969ZM168.595 13.2458C168.446 13.3728 168.264 13.4557 168.071 13.4852C167.877 13.5146 167.679 13.4893 167.499 13.4122C167.319 13.3351 167.164 13.2093 167.052 13.0491C166.94 12.8889 166.876 12.7007 166.866 12.5059C166.866 12.2295 166.756 11.9644 166.56 11.769C166.363 11.5735 166.097 11.4637 165.819 11.4637H162.069C161.194 11.4665 160.354 11.8147 159.736 12.432C159.117 13.0493 158.77 13.8853 158.77 14.7569V38.1429C158.77 39.0136 159.118 39.8485 159.737 40.4642C160.355 41.0798 161.194 41.4257 162.069 41.4257H163.588C164.022 41.4271 164.452 41.3432 164.854 41.1788C165.255 41.0144 165.62 40.7729 165.928 40.4679C166.235 40.1629 166.479 39.8005 166.646 39.4016C166.812 39.0026 166.898 38.5749 166.898 38.1429V25.8142C166.898 21.1349 169.129 17.5395 173.507 17.5395C177.319 17.5395 178.743 20.2595 178.743 24.1155V38.1429C178.746 39.0145 179.096 39.8495 179.717 40.4648C180.337 41.0802 181.177 41.4257 182.053 41.4257H183.572C184.006 41.4271 184.436 41.3432 184.838 41.1788C185.239 41.0144 185.604 40.7729 185.912 40.4679C186.219 40.1629 186.463 39.8005 186.629 39.4016C186.796 39.0026 186.882 38.5749 186.882 38.1429V22.3438C186.882 14.6944 181.99 10.7134 175.884 10.7134C173.213 10.6487 170.609 11.5482 168.553 13.2458H168.595ZM201 37.799C201 40.1588 199.077 42.0718 196.706 42.0718C194.334 42.0718 192.412 40.1588 192.412 37.799C192.412 35.4392 194.334 33.5262 196.706 33.5262C199.077 33.5262 201 35.4392 201 37.799Z" fill="url(#paint0_linear_2551_3858)"/>
</g>
<defs>
<linearGradient id="paint0_linear_2551_3858" x1="0" y1="42.1998" x2="201" y2="42.1998" gradientUnits="userSpaceOnUse">
<stop stop-color="#3C61E9"/>
<stop offset="0.75" stop-color="#E53268"/>
</linearGradient>
<clipPath id="clip0_2551_3858">
<rect width="201" height="42" fill="white"/>
</clipPath>
</defs>
</svg>
