<?xml version="1.0" encoding="UTF-8"?>
<svg version="1.1" xmlns="http://www.w3.org/2000/svg" width="256" height="256">
<path d="M0 0 C9.96500232 8.63633535 26.83375774 27.46275071 28.05078125 41.109375 C28.20652083 47.5684692 28.2114527 52.46583046 23.8125 57.4375 C20.37619063 60.81158244 16.81926735 63.76632176 12.8125 66.4375 C17.66054445 77.08812616 26.79993989 86.10621641 34.8125 94.4375 C35.38274902 95.03498047 35.95299805 95.63246094 36.54052734 96.24804688 C45.0699197 105.14229621 53.91898025 113.09331177 63.8125 120.4375 C64.54082031 121.05109375 65.26914063 121.6646875 66.01953125 122.296875 C66.61121094 122.67328125 67.20289063 123.0496875 67.8125 123.4375 C71.24446768 122.29351077 71.65444251 121.57547957 73.625 118.6875 C76.9554402 114.07293484 80.27048887 110.28483704 85.8125 108.4375 C101.17763263 106.80042346 110.33078476 114.98793348 121.82470703 123.90966797 C124.53906174 125.9959406 127.29677709 128.02227479 130.05859375 130.04516602 C134.56168917 133.61993678 137.70978144 137.70336349 138.8125 143.4375 C139.09164316 153.04330878 135.46857901 159.86121802 129 166.75 C120.070627 175.09954358 108.45509359 177.81289501 96.37524414 177.43603516 C55.90834307 175.15099421 21.03959142 146.09406139 -5.1875 117.4375 C-24.58537836 94.91502471 -43.32769628 63.15823417 -41.1875 32.4375 C-39.69561376 20.03619564 -34.71537516 11.7889461 -25.875 3.1875 C-17.48295499 -2.27708745 -9.33098749 -4.57401347 0 0 Z " fill="#F5F5F5" transform="translate(79.1875,40.5625)"/>
</svg>
