<?xml version="1.0" encoding="UTF-8"?>
<svg version="1.1" xmlns="http://www.w3.org/2000/svg" width="256" height="256">
<path d="M0 0 C11.51352435 3.05459645 11.51352435 3.05459645 17.03686523 5.10961914 C18.61183022 5.69151756 18.61183022 5.69151756 20.21861267 6.28517151 C21.32080643 6.69766647 22.42300018 7.11016144 23.55859375 7.53515625 C24.74179703 7.97331161 25.92500031 8.41146698 27.14405823 8.86289978 C30.27937406 10.02460692 33.41320998 11.19012975 36.54626465 12.35791016 C42.0897471 14.42316419 47.63670405 16.47907555 53.18359375 18.53515625 C54.39236176 18.98355865 55.60112976 19.43196106 56.8465271 19.89395142 C69.85756414 24.7086259 82.92322811 29.36720103 96 34 C96.12589518 35.33642578 96.25179036 36.67285156 96.37768555 38.00927734 C96.45240082 38.79824402 96.52711609 39.58721069 96.60409546 40.40008545 C96.75725733 42.03523254 96.90361973 43.67102017 97.04614258 45.30712891 C97.8201697 52.82407431 100.09465837 58.03414454 106 63 C112.29849856 66.70025591 118.61365289 66.52546332 125.79614258 66.50097656 C127.79723794 66.50000739 129.79819737 66.54280778 131.79882812 66.5859375 C139.931572 66.60219486 146.25481635 65.77968243 153 61 C158.4589207 54.99518723 158.93618558 47.48731679 159.55078125 39.6953125 C159.67900269 38.09067139 159.67900269 38.09067139 159.80981445 36.45361328 C159.87257568 35.6439209 159.93533691 34.83422852 160 34 C160.69093246 33.75102966 161.38186493 33.50205933 162.09373474 33.24554443 C168.76011445 30.843286 175.42632821 28.44056768 182.09237099 26.0373745 C185.61315225 24.76809787 189.13398456 23.49896324 192.65493774 22.23016357 C212.50312541 15.080659 212.50312541 15.080659 232.328125 7.8671875 C233.11949356 7.57791382 233.91086212 7.28864014 234.72621155 6.99060059 C238.21357148 5.71527794 241.69954671 4.43637423 245.18334961 3.15136719 C246.35389893 2.72243164 247.52444824 2.29349609 248.73046875 1.8515625 C250.20616333 1.30749756 250.20616333 1.30749756 251.71166992 0.75244141 C254 0 254 0 256 0 C256.09365058 13.79556325 256.16381392 27.59107684 256.20724869 41.38689327 C256.22809818 47.79327885 256.25636828 54.19945045 256.30175781 60.60571289 C256.34530867 66.79137327 256.36915695 72.97682818 256.37950897 79.16263008 C256.38688368 81.51927486 256.40128472 83.87590875 256.42292023 86.23246574 C256.45207614 89.54055716 256.45595079 92.84780605 256.45410156 96.15600586 C256.46848267 97.1241774 256.48286377 98.09234894 256.49768066 99.08985901 C256.43435674 109.60058708 252.3200513 116.69654745 245 124 C237.37193745 131.05595786 228.82128014 132.15444762 218.82218933 132.13371277 C217.61120959 132.1371111 217.61120959 132.1371111 216.37576562 132.14057809 C213.67912529 132.14689216 210.98253556 132.14609039 208.28588867 132.14526367 C206.34889155 132.14825678 204.41189503 132.15165967 202.47489929 132.15544128 C197.21861639 132.1642701 191.96234977 132.16661893 186.70606017 132.16725707 C183.42042036 132.16796822 180.13478468 132.17010377 176.84914589 132.17275429 C165.38176842 132.18200407 153.91440256 132.18608964 142.44702148 132.18530273 C131.76568216 132.18470207 121.08439336 132.19525271 110.40306681 132.2110464 C101.22580865 132.22413152 92.04856698 132.22948622 82.87129956 132.22884732 C77.39317219 132.22859262 71.91508973 132.23142868 66.43697166 132.24202538 C61.28318448 132.25172265 56.12948498 132.25177433 50.97569466 132.24450874 C49.08793891 132.24346493 47.20017766 132.24581372 45.31243134 132.2518692 C42.72777255 132.25962092 40.14341421 132.25492341 37.5587616 132.24723816 C36.81866213 132.25238172 36.07856265 132.25752529 35.31603593 132.26282471 C24.35924864 132.19124385 16.26903444 129.16055762 8.25 121.6875 C3.23584343 116.45583436 -0.1288289 109.89104807 -0.12025452 102.57710266 C-0.12162918 101.67266418 -0.12300385 100.76822571 -0.12442017 99.83638 C-0.12082489 98.84663681 -0.11722961 97.85689362 -0.11352539 96.8371582 C-0.11367142 95.79308807 -0.11381744 94.74901794 -0.1139679 93.67330933 C-0.11327018 90.21577897 -0.10548431 86.75830222 -0.09765625 83.30078125 C-0.09579157 80.9061028 -0.0943679 78.51142396 -0.09336853 76.116745 C-0.08954728 69.80877635 -0.07972031 63.50083066 -0.06866455 57.19287109 C-0.05844202 50.75814118 -0.0538691 44.32340756 -0.04882812 37.88867188 C-0.03809772 25.25910478 -0.02121774 12.62955361 0 0 Z " fill="black" transform="translate(0,114)"/>
<path d="M0 0 C0.66916946 -0.00335861 1.33833893 -0.00671722 2.02778625 -0.01017761 C4.22451674 -0.01962131 6.42117044 -0.02162746 8.61791992 -0.02270508 C10.15720144 -0.02592246 11.69648266 -0.02928689 13.23576355 -0.03279114 C16.45763863 -0.03876613 19.67948696 -0.04063274 22.90136719 -0.04003906 C27.00997601 -0.03993759 31.11841145 -0.05358192 35.22697926 -0.07081127 C38.40562208 -0.08198399 41.5842237 -0.08395665 44.76288414 -0.08342934 C46.27659387 -0.08460182 47.79030494 -0.08898204 49.30399513 -0.0967617 C63.03161673 -0.1607066 73.44013352 0.81640036 83.78588867 10.45776367 C88.71722849 15.60302006 92.18471199 22.16117584 92.13354492 29.37573242 C92.13032227 30.17817383 92.12709961 30.98061523 92.1237793 31.80737305 C92.11540039 32.64075195 92.10702148 33.47413086 92.09838867 34.33276367 C92.09387695 35.17774414 92.08936523 36.02272461 92.0847168 36.89331055 C92.0729427 38.97732522 92.05500757 41.06130344 92.03588867 43.14526367 C93.1294165 43.12431641 94.22294434 43.10336914 95.34960938 43.08178711 C99.45526737 43.00870237 103.56086941 42.96321833 107.66699219 42.92553711 C109.4349946 42.90557605 111.20293233 42.87839716 112.97070312 42.84350586 C125.84359932 42.59602015 137.34856118 42.66548939 147.24682617 52.07495117 C153.31493945 59.09700366 156.20944696 65.61296014 156.09838867 74.83276367 C156.08735107 76.1241626 156.07631348 77.41556152 156.06494141 78.74609375 C156.0505603 80.42868286 156.0505603 80.42868286 156.03588867 82.14526367 C140.19670202 88.48947624 124.12932403 94.19802709 108.0645752 99.93811035 C102.38203131 101.96885564 96.70072256 104.00304714 91.01990509 106.03861618 C88.98931104 106.76567164 86.95815263 107.49113342 84.92694092 108.21646118 C79.46103582 110.17150214 74.00191596 112.13598777 68.58764648 114.23071289 C67.82912384 114.52380844 67.0706012 114.81690399 66.28909302 115.11888123 C64.42494668 115.84693856 62.56625764 116.58893098 60.70825195 117.33251953 C58.03588867 118.14526367 58.03588867 118.14526367 55.03588867 117.14526367 C54.27276367 116.36151367 53.50963867 115.57776367 52.72338867 114.77026367 C46.09081558 108.29193647 39.06215731 108.64735396 30.35083008 108.69921875 C28.17326847 108.70771537 25.99834715 108.67895374 23.82104492 108.6472168 C16.36331426 108.60924247 10.39298712 108.81518048 4.03588867 113.14526367 C1.57631128 115.71336195 1.57631128 115.71336195 0.03588867 118.14526367 C-8.13547591 115.82434774 -16.10979444 113.02036737 -24.09692383 110.13745117 C-25.45996658 109.64745143 -26.8230764 109.15763827 -28.18624878 108.66799927 C-31.03939472 107.64253871 -33.8918907 106.61529709 -36.74389648 105.58666992 C-40.32151529 104.29641901 -43.90045346 103.00987788 -47.47984695 101.72455978 C-60.97790867 96.87648575 -74.46296611 91.99760771 -87.89379883 86.96557617 C-88.89516876 86.59044891 -89.8965387 86.21532166 -90.92825317 85.8288269 C-97.6972788 83.27867994 -97.6972788 83.27867994 -99.96411133 82.14526367 C-100.66427602 70.4758522 -99.47077709 62.69728534 -92.15161133 53.33276367 C-86.77150998 47.48362784 -79.86440961 43.63795573 -71.87199402 42.9705658 C-69.56805103 42.91551019 -67.27241458 42.92003285 -64.96801758 42.94995117 C-63.71769997 42.95419601 -63.71769997 42.95419601 -62.44212341 42.95852661 C-59.80346773 42.96964078 -57.16516285 42.99472853 -54.52661133 43.02026367 C-52.72778814 43.03030482 -50.92895958 43.03942868 -49.13012695 43.04760742 C-44.74132178 43.06955132 -40.35277585 43.10401981 -35.96411133 43.14526367 C-35.98223877 41.90534668 -36.00036621 40.66542969 -36.01904297 39.38793945 C-36.0337033 37.74715538 -36.04792157 36.10636732 -36.06176758 34.46557617 C-36.07485962 33.65000244 -36.08795166 32.83442871 -36.10144043 31.99414062 C-36.16179517 22.45809129 -33.15539721 16.78585939 -26.68676758 9.86401367 C-18.91429893 2.10916967 -10.74611649 0.03404783 0 0 Z M-10.96411133 25.14526367 C-15.07885213 31.0313397 -15.07885213 31.0313397 -13.96411133 43.14526367 C13.75588867 43.14526367 41.47588867 43.14526367 70.03588867 43.14526367 C70.90961503 31.4563379 70.90961503 31.4563379 68.41088867 26.45776367 C64.13892509 22.29822019 59.36620104 21.89474066 53.59082031 21.87060547 C52.33253922 21.86107346 51.07425812 21.85154144 49.77784729 21.84172058 C48.41724621 21.84198204 47.05664512 21.84291922 45.69604492 21.84448242 C44.28649266 21.8405904 42.87694157 21.83625469 41.46739197 21.83149719 C38.5195637 21.82405553 35.57185525 21.82431137 32.62402344 21.82958984 C28.86036666 21.83538337 25.09720219 21.81844682 21.33362675 21.79524517 C18.42440459 21.7804608 15.51529975 21.77964246 12.60604668 21.7827549 C11.21907005 21.7822441 9.83208644 21.77705193 8.44514656 21.76694298 C-1.74142769 21.49795909 -1.74142769 21.49795909 -10.96411133 25.14526367 Z " fill="black" transform="translate(99.964111328125,9.854736328125)"/>
<path d="M0 0 C7.26 0 14.52 0 22 0 C22 7.26 22 14.52 22 22 C14.74 22 7.48 22 0 22 C0 14.74 0 7.48 0 0 Z " fill="black" transform="translate(117,138)"/>
</svg>
