<?xml version="1.0" encoding="UTF-8"?>
<svg version="1.1" xmlns="http://www.w3.org/2000/svg" width="256" height="256">
<path d="M0 0 C3.34016284 1.94536957 6.1130752 4.44288038 9 7 C10.51693192 8.29109094 12.03404849 9.5819741 13.55493164 10.8684082 C14.64593967 11.79169434 15.73496505 12.71732827 16.82202148 13.64526367 C23.06294115 18.95565592 29.5244036 23.98068465 36 29 C36.99 27.515 36.99 27.515 38 26 C38.982412 24.7773242 39.9834513 23.56944472 41 22.375 C41.515625 21.76398437 42.03125 21.15296875 42.5625 20.5234375 C44.68311972 18.2760416 45.7676954 18.0142488 48.88574219 17.82299805 C52.13687536 17.76858124 55.38716249 17.72342922 58.63867188 17.70483398 C60.72854048 17.68767618 62.81680334 17.64379781 64.90625 17.59960938 C66.24478007 17.58947689 67.58332356 17.58096252 68.921875 17.57421875 C70.13456055 17.55963623 71.34724609 17.54505371 72.59667969 17.5300293 C77.63353198 18.22557741 80.5572654 20.34800373 83.86499023 24.13549805 C85.54782564 28.38258513 85.2840472 32.31124791 85.16015625 36.83203125 C85.14831399 38.78449372 85.13861554 40.73697015 85.13085938 42.68945312 C85.10411635 45.75165229 85.06253887 48.81100102 84.9831543 51.87231445 C84.25458711 63.42369606 84.25458711 63.42369606 87.98535156 73.92114258 C90.55115716 75.97057362 93.10034222 77.4692438 96 79 C97.49993615 80.16327136 98.97311765 81.36206464 100.4140625 82.59765625 C101.11273438 83.17193359 101.81140625 83.74621094 102.53125 84.33789062 C103.2221875 84.90701172 103.913125 85.47613281 104.625 86.0625 C105.32367188 86.63548828 106.02234375 87.20847656 106.7421875 87.79882812 C108.83650949 89.52276539 110.92044378 91.25828659 113 93 C113.74862305 93.62245605 114.49724609 94.24491211 115.26855469 94.88623047 C115.99204102 95.49998535 116.71552734 96.11374023 117.4609375 96.74609375 C118.11626465 97.29837646 118.7715918 97.85065918 119.44677734 98.41967773 C122.12381713 101.14342475 122.22922267 104.16245983 122.375 107.8125 C122.34313885 111.44998115 122.05084179 113.64159226 119.75 116.5 C115.27254695 120.57041186 112.5414444 121.25037677 106.484375 121.1953125 C105.23398438 121.18886719 103.98359375 121.18242187 102.6953125 121.17578125 C101.39335937 121.15902344 100.09140625 121.14226562 98.75 121.125 C97.43257812 121.11597656 96.11515625 121.10695313 94.7578125 121.09765625 C91.50502538 121.07408533 88.25260411 121.04118022 85 121 C85.00999275 122.31425461 85.00999275 122.31425461 85.02018738 123.65505981 C85.0803696 131.92363432 85.12601055 140.19213495 85.15543652 148.46087837 C85.17107344 152.71164439 85.19227545 156.962229 85.22631836 161.21289062 C85.25898252 165.31721651 85.27686786 169.42136819 85.28463173 173.52581406 C85.2901626 175.08947363 85.30096312 176.65312398 85.31719017 178.21670914 C85.33905886 180.41177002 85.34196308 182.60611674 85.34057617 184.80126953 C85.35056892 186.67324509 85.35056892 186.67324509 85.36076355 188.58303833 C84.82388629 193.66805596 83.22190713 196.89730332 79.4375 200.3125 C76.04911581 202.65830444 74.33601691 203.12911531 70.26245117 203.16113281 C68.78532906 203.17554413 68.78532906 203.17554413 67.27836609 203.19024658 C66.21068497 203.19449646 65.14300385 203.19874634 64.04296875 203.203125 C62.94785477 203.20882507 61.85274078 203.21452515 60.72444153 203.22039795 C58.40346241 203.22985713 56.08246981 203.23638556 53.76147461 203.24023438 C50.2124888 203.24993172 46.66408397 203.28094371 43.11523438 203.3125 C40.86198261 203.31903073 38.6087267 203.32428093 36.35546875 203.328125 C35.29386032 203.3404718 34.23225189 203.3528186 33.13847351 203.36553955 C26.38869191 203.34516471 22.8687876 202.55003342 17.75 198 C15.13491109 195.01132696 14.87545133 192.47650903 14.8581543 188.65551758 C14.84760262 187.34318901 14.84760262 187.34318901 14.83683777 186.00434875 C14.83267349 185.06060898 14.82850922 184.1168692 14.82421875 183.14453125 C14.8010122 181.13996355 14.77689453 179.13540624 14.75195312 177.13085938 C14.71691191 173.97543473 14.68753366 170.82039002 14.67407227 167.66479492 C14.65852525 164.61590608 14.61826465 161.5681247 14.57421875 158.51953125 C14.57708138 157.11910332 14.57708138 157.11910332 14.58000183 155.69038391 C14.45697286 149.04580521 13.21562204 143.4736115 8.58842468 138.47517395 C3.23933796 133.74217655 -1.4573544 132.52130606 -8.4375 132.6875 C-13.96702854 133.36183275 -18.19981629 135.79086415 -21.875 139.9375 C-26.05484766 145.96139809 -26.29194429 150.76176256 -26.30859375 157.90234375 C-26.33374939 159.86393532 -26.35914747 161.82552379 -26.38476562 163.78710938 C-26.41351085 166.86579617 -26.43754222 169.94442932 -26.45629883 173.02319336 C-26.47799058 176.0040208 -26.51742632 178.98423088 -26.55859375 181.96484375 C-26.55870956 182.88063705 -26.55882538 183.79643036 -26.5589447 184.73997498 C-26.63860844 189.90199862 -27.10868422 193.54174414 -30 198 C-34.00570576 201.6149052 -36.39532922 203.11914392 -41.73754883 203.16113281 C-43.21467094 203.17554413 -43.21467094 203.17554413 -44.72163391 203.19024658 C-45.78931503 203.19449646 -46.85699615 203.19874634 -47.95703125 203.203125 C-49.05214523 203.20882507 -50.14725922 203.21452515 -51.27555847 203.22039795 C-53.59653759 203.22985713 -55.91753019 203.23638556 -58.23852539 203.24023438 C-61.7875112 203.24993172 -65.33591603 203.28094371 -68.88476562 203.3125 C-71.13801739 203.31903073 -73.3912733 203.32428093 -75.64453125 203.328125 C-76.70613968 203.3404718 -77.76774811 203.3528186 -78.86152649 203.36553955 C-88.05993297 203.33777331 -88.05993297 203.33777331 -92 200 C-96.4636536 195.04038489 -97.12516456 191.71797419 -97.11352539 185.1418457 C-97.11367142 184.44890411 -97.11381744 183.75596252 -97.1139679 183.04202271 C-97.11327163 180.75324363 -97.1054926 178.4645461 -97.09765625 176.17578125 C-97.09579106 174.58823186 -97.09436763 173.00068189 -97.09336853 171.41313171 C-97.08955134 167.2357728 -97.07972786 163.05844869 -97.06866455 158.88110352 C-97.05843328 154.61800609 -97.05386723 150.35490304 -97.04882812 146.09179688 C-97.03810489 137.72784862 -97.02103803 129.36392864 -97 121 C-97.78648926 121.01571045 -98.57297852 121.0314209 -99.38330078 121.04760742 C-102.96379338 121.11015915 -106.54417076 121.14905551 -110.125 121.1875 C-111.3625 121.21263672 -112.6 121.23777344 -113.875 121.26367188 C-115.07382813 121.27333984 -116.27265625 121.28300781 -117.5078125 121.29296875 C-118.60754395 121.3086792 -119.70727539 121.32438965 -120.84033203 121.34057617 C-125.55612544 120.83226742 -128.82544195 119.02001094 -132.375 115.9375 C-134.70274232 111.72965812 -134.8172631 107.71214761 -134 103 C-131.8407161 98.26618529 -128.36155984 95.43302995 -124.4375 92.1875 C-123.80980713 91.65906494 -123.18211426 91.13062988 -122.53540039 90.58618164 C-118.26442173 87.00510931 -113.92781231 83.51017301 -109.5546875 80.0546875 C-106.51275228 77.60811575 -103.53581659 75.09166252 -100.5625 72.5625 C-93.89315717 66.89058773 -87.12177347 61.35044744 -80.328125 55.828125 C-75.40121211 51.8125486 -70.52206591 47.7506512 -65.6875 43.625 C-61.25138512 39.8421847 -56.73399975 36.19467742 -52.125 32.625 C-46.38458187 28.17324717 -40.87989778 23.4949832 -35.41259766 18.71337891 C-10.62548091 -2.95340843 -10.62548091 -2.95340843 0 0 Z " fill="#F5F5F5" transform="translate(134,27)"/>
</svg>
