<svg xmlns="http://www.w3.org/2000/svg" width="12" height="11" viewBox="0 0 12 11" fill="none">
  <path d="M2.33333 1.16725C2.33318 1.47667 2.21011 1.77335 1.99121 1.99204C1.77231 2.21072 1.4755 2.33349 1.16608 2.33333C0.856664 2.33318 0.559979 2.21011 0.341296 1.99121C0.122613 1.77231 -0.000154564 1.4755 1.46044e-07 1.16608C0.000154856 0.856664 0.123219 0.559979 0.342121 0.341296C0.561023 0.122613 0.857831 -0.000154564 1.16725 1.46044e-07C1.47667 0.000154856 1.77335 0.12322 1.99204 0.342121C2.21072 0.561023 2.33349 0.857831 2.33333 1.16725ZM2.36833 3.19725H0.0350001V10.5006H2.36833V3.19725ZM6.055 3.19725H3.73333V10.5006H6.03167V6.66808C6.03167 4.53308 8.81417 4.33475 8.81417 6.66808V10.5006H11.1183V5.87475C11.1183 2.27558 7 2.40975 6.03167 4.17725L6.055 3.19725Z" fill="#2B2B2B"/>
</svg>