<?xml version="1.0" encoding="UTF-8"?>
<svg version="1.1" xmlns="http://www.w3.org/2000/svg" width="256" height="256">
<path d="M0 0 C12.41488901 8.48499609 20.75250368 19.73537753 24.875 34.25 C25.42836802 37.28054895 25.28192648 39.4618785 24.79238892 42.54867554 C23.77417375 49.87832704 24.05384592 55.65084268 28.54901123 61.76544189 C33.13677516 67.25102111 38.22640887 72.23269549 43.3359375 77.2265625 C45.20122878 79.10399843 47.06370153 80.98393434 48.92373657 82.86654663 C52.81814434 86.79355148 56.74860733 90.68142558 60.70214844 94.54882812 C65.2495393 98.99826317 69.7284089 103.50887631 74.17718923 108.05674422 C78.02292705 111.98461712 81.90320555 115.87576 85.8136059 119.73926485 C88.13836929 122.03620063 90.44586203 124.34627069 92.73020554 126.68352127 C103.4457344 138.34788357 103.4457344 138.34788357 117.88459206 143.03455162 C120.13374596 142.93633554 122.30863655 142.72050801 124.53652954 142.40267944 C134.90010849 140.97798499 144.98281884 146.21491713 153.375 151.875 C164.77935468 161.39807366 172.88397572 173.08358114 174.63476562 188.10351562 C175.71202522 201.36795453 173.0664486 212.53202213 168.375 224.875 C161.25594773 219.06816781 154.90125188 212.51214556 148.4375 206 C147.26520796 204.82268362 146.09268386 203.64559826 144.91992188 202.46875 C142.06893018 199.60682511 139.22110385 196.74178543 136.375 193.875 C133.44269807 195.19620828 131.38835101 196.62138197 129.140625 198.9140625 C128.56699219 199.49414062 127.99335938 200.07421875 127.40234375 200.671875 C126.81582031 201.27515625 126.22929687 201.8784375 125.625 202.5 C124.72201172 203.41652344 124.72201172 203.41652344 123.80078125 204.3515625 C122.32094695 205.85488624 120.84735324 207.36434856 119.375 208.875 C120.67219924 211.73279017 122.0386826 213.78508536 124.26416016 215.99121094 C124.8446109 216.57151062 125.42506165 217.1518103 126.02310181 217.74969482 C126.64711884 218.36338928 127.27113586 218.97708374 127.9140625 219.609375 C128.55491791 220.24740051 129.19577332 220.88542603 129.85604858 221.54278564 C131.89937821 223.57494069 133.94955982 225.60002218 136 227.625 C137.3884786 229.0034453 138.7765049 230.38234636 140.1640625 231.76171875 C143.56248697 235.13811894 146.96707254 238.50819288 150.375 241.875 C138.13693403 250.03371064 120.89691926 250.84496286 106.828125 248.2109375 C94.01622837 244.39392166 81.72982892 235.66801699 75.04296875 223.9921875 C66.54302992 208.12101785 66.54302992 208.12101785 67.95761108 199.20132446 C68.97582625 191.87167296 68.69615408 186.09915732 64.20098877 179.98455811 C59.61322484 174.49897889 54.52359113 169.51730451 49.4140625 164.5234375 C47.54877122 162.64600157 45.68629847 160.76606566 43.82626343 158.88345337 C39.93185566 154.95644852 36.00139267 151.06857442 32.04785156 147.20117188 C27.5004607 142.75173683 23.0215911 138.24112369 18.57281077 133.69325578 C14.72707295 129.76538288 10.84679445 125.87424 6.9363941 122.01073515 C4.61163071 119.71379937 2.30413797 117.40372931 0.01979446 115.06647873 C-10.6957344 103.40211643 -10.6957344 103.40211643 -25.13459206 98.71544838 C-27.38374596 98.81366446 -29.55863655 99.02949199 -31.78652954 99.34732056 C-42.15010849 100.77201501 -52.23281884 95.53508287 -60.625 89.875 C-72.02935468 80.35192634 -80.13397572 68.66641886 -81.88476562 53.64648438 C-82.96202522 40.38204547 -80.3164486 29.21797787 -75.625 16.875 C-68.50594773 22.68183219 -62.15125188 29.23785444 -55.6875 35.75 C-54.51520796 36.92731638 -53.34268386 38.10440174 -52.16992188 39.28125 C-49.31893018 42.14317489 -46.47110385 45.00821457 -43.625 47.875 C-40.69269807 46.55379172 -38.63835101 45.12861803 -36.390625 42.8359375 C-35.53017578 41.96582031 -35.53017578 41.96582031 -34.65234375 41.078125 C-34.06582031 40.47484375 -33.47929688 39.8715625 -32.875 39.25 C-32.27300781 38.63898437 -31.67101563 38.02796875 -31.05078125 37.3984375 C-29.57094695 35.89511376 -28.09735324 34.38565144 -26.625 32.875 C-27.92219924 30.01720983 -29.2886826 27.96491464 -31.51416016 25.75878906 C-32.38483627 24.88833954 -32.38483627 24.88833954 -33.27310181 24.00030518 C-34.20912735 23.07976349 -34.20912735 23.07976349 -35.1640625 22.140625 C-35.80491791 21.50259949 -36.44577332 20.86457397 -37.10604858 20.20721436 C-39.14937821 18.17505931 -41.19955982 16.14997782 -43.25 14.125 C-44.6384786 12.7465547 -46.0265049 11.36765364 -47.4140625 9.98828125 C-50.81248697 6.61188106 -54.21707254 3.24180712 -57.625 -0.125 C-40.88737746 -11.28341503 -16.68679182 -9.81712509 0 0 Z " fill="black" transform="translate(81.625,7.125)"/>
<path d="M0 0 C9.6713477 5.20410615 16.93572332 12.92264611 20.76953125 23.28515625 C23.08618512 33.46796255 22.72559648 45.17293685 17.3125 54.25 C12.88516859 60.63508201 7.02214241 65.94113072 1.4609375 71.32421875 C-4.90414817 66.07601818 -10.69229225 60.29950423 -16.50390625 54.45703125 C-17.54743329 53.4116355 -18.59118402 52.366463 -19.63514709 51.32150269 C-22.36136995 48.59149035 -25.08457431 45.85848682 -27.80712891 43.12481689 C-30.59418709 40.32746721 -33.38413396 37.53300174 -36.17382812 34.73828125 C-41.63171331 29.26972181 -47.08640809 23.7979943 -52.5390625 18.32421875 C-52.12560577 17.84215469 -51.71214905 17.36009064 -51.28616333 16.86341858 C-50.74458588 16.2318132 -50.20300842 15.60020782 -49.64501953 14.94946289 C-49.10781281 14.32302383 -48.57060608 13.69658478 -48.01712036 13.05116272 C-46.95551732 11.81079926 -45.89823008 10.56673711 -44.84375 9.3203125 C-33.63445501 -2.89965663 -15.1505377 -6.48333821 0 0 Z " fill="black" transform="translate(234.5390625,2.67578125)"/>
<path d="M0 0 C3.76672156 3.18402088 7.49002591 6.36161906 10.96484375 9.8671875 C11.94614258 10.85332031 11.94614258 10.85332031 12.94726562 11.859375 C13.60404297 12.52453125 14.26082031 13.1896875 14.9375 13.875 C15.62134766 14.56335938 16.30519531 15.25171875 17.00976562 15.9609375 C18.67551464 17.63833511 20.3388622 19.31803791 22 21 C20.43056316 24.78301227 18.06898723 27.17256547 15.18310547 30.04394531 C14.69513489 30.53220795 14.20716431 31.02047058 13.70440674 31.52352905 C12.09669725 33.12984962 10.48202899 34.72897713 8.8671875 36.328125 C7.74859765 37.44298317 6.63044971 38.55828487 5.51272583 39.67401123 C2.57440675 42.60470609 -0.36986955 45.52934422 -3.31542969 48.45275879 C-6.32198262 51.43882725 -9.32285882 54.43058859 -12.32421875 57.421875 C-18.21060686 63.28683456 -24.103301 69.14540732 -30 75 C-33.76672156 71.81597912 -37.49002591 68.63838094 -40.96484375 65.1328125 C-41.61904297 64.47539062 -42.27324219 63.81796875 -42.94726562 63.140625 C-43.60404297 62.47546875 -44.26082031 61.8103125 -44.9375 61.125 C-45.62134766 60.43664062 -46.30519531 59.74828125 -47.00976562 59.0390625 C-48.67551464 57.36166489 -50.3388622 55.68196209 -52 54 C-50.43056316 50.21698773 -48.06898723 47.82743453 -45.18310547 44.95605469 C-44.69513489 44.46779205 -44.20716431 43.97952942 -43.70440674 43.47647095 C-42.09669725 41.87015038 -40.48202899 40.27102287 -38.8671875 38.671875 C-37.74859765 37.55701683 -36.63044971 36.44171513 -35.51272583 35.32598877 C-32.57440675 32.39529391 -29.63013045 29.47065578 -26.68457031 26.54724121 C-23.67801738 23.56117275 -20.67714118 20.56941141 -17.67578125 17.578125 C-11.78939314 11.71316544 -5.896699 5.85459268 0 0 Z " fill="black" transform="translate(101,164)"/>
<path d="M0 0 C3.52344644 1.6586188 5.79901878 3.56657308 8.546875 6.3515625 C9.81337891 7.62773437 9.81337891 7.62773437 11.10546875 8.9296875 C12.41451172 10.26386719 12.41451172 10.26386719 13.75 11.625 C14.63816406 12.5221875 15.52632813 13.419375 16.44140625 14.34375 C18.63216969 16.55807004 20.81812763 18.77692435 23 21 C17.81239418 27.28513004 12.12572734 33.00311158 6.3515625 38.74609375 C5.32858694 39.76720048 4.30583472 40.788531 3.28329468 41.81007385 C0.61246639 44.47711353 -2.06135282 47.14113436 -4.73583984 49.80450439 C-7.47286736 52.5312385 -10.20700901 55.26086305 -12.94140625 57.99023438 C-18.29147548 63.32963089 -23.64471273 68.66583652 -29 74 C-32.52344644 72.3413812 -34.79901878 70.43342692 -37.546875 67.6484375 C-38.39121094 66.79765625 -39.23554687 65.946875 -40.10546875 65.0703125 C-40.97816406 64.18085938 -41.85085937 63.29140625 -42.75 62.375 C-44.08224609 61.02921875 -44.08224609 61.02921875 -45.44140625 59.65625 C-47.63216969 57.44192996 -49.81812763 55.22307565 -52 53 C-46.81239418 46.71486996 -41.12572734 40.99688842 -35.3515625 35.25390625 C-34.32858694 34.23279952 -33.30583472 33.211469 -32.28329468 32.18992615 C-29.61246639 29.52288647 -26.93864718 26.85886564 -24.26416016 24.19549561 C-21.52713264 21.4687615 -18.79299099 18.73913695 -16.05859375 16.00976562 C-10.70852452 10.67036911 -5.35528727 5.33416348 0 0 Z " fill="black" transform="translate(69,133)"/>
<path d="M0 0 C6.1241816 5.06500238 11.70715861 10.5782921 17.30859375 16.2109375 C18.28485986 17.18907267 19.26134994 18.16698435 20.23805237 19.14468384 C22.78672577 21.69714399 25.33237958 24.25259448 27.87738037 26.80871582 C30.48346618 29.42509914 33.09244621 32.03859303 35.70117188 34.65234375 C40.80359118 39.76543246 45.90281857 44.88168912 51 50 C48.00555829 51.99629448 46.71753678 52.37941023 43.27246094 52.86962891 C42.31426453 53.00962311 41.35606812 53.14961731 40.36883545 53.29385376 C39.3344635 53.43664764 38.30009155 53.57944153 37.234375 53.7265625 C36.16761536 53.87910492 35.10085571 54.03164734 34.00177002 54.18881226 C31.74274928 54.5100942 29.48318745 54.82759077 27.22314453 55.14160156 C23.7762494 55.62134656 20.33145356 56.11438234 16.88671875 56.609375 C14.69021663 56.92006695 12.49360527 57.2299878 10.296875 57.5390625 C9.27059998 57.68590485 8.24432495 57.83274719 7.18695068 57.98403931 C2.07042478 58.68863776 -2.83520107 59.16879018 -8 59 C-7.45581742 47.95098261 -6.01321455 37.10152368 -4.41601562 26.16430664 C-3.99530153 23.28029177 -3.58306394 20.39515246 -3.171875 17.50976562 C-2.90673971 15.66920022 -2.64113245 13.82870273 -2.375 11.98828125 C-2.25205566 11.12898514 -2.12911133 10.26968903 -2.00244141 9.38435364 C-1.88562012 8.58889633 -1.76879883 7.79343903 -1.6484375 6.97387695 C-1.54708496 6.27664017 -1.44573242 5.57940338 -1.34130859 4.86103821 C-1 3 -1 3 0 0 Z " fill="black" transform="translate(8,197)"/>
<path d="M0 0 C3.76672156 3.18402088 7.49002591 6.36161906 10.96484375 9.8671875 C11.94614258 10.85332031 11.94614258 10.85332031 12.94726562 11.859375 C13.93243164 12.85710937 13.93243164 12.85710937 14.9375 13.875 C15.62134766 14.56335938 16.30519531 15.25171875 17.00976562 15.9609375 C18.67551464 17.63833511 20.3388622 19.31803791 22 21 C20.59490901 24.18259851 18.93078658 26.31348466 16.46826172 28.75878906 C15.74766571 29.47923401 15.0270697 30.19967896 14.28463745 30.94195557 C13.50750397 31.70876648 12.73037048 32.47557739 11.9296875 33.265625 C11.13345978 34.05902283 10.33723206 34.85242065 9.51687622 35.66986084 C6.97424052 38.20130703 4.42473652 40.72570803 1.875 43.25 C0.14928247 44.96568617 -1.57598355 46.68182662 -3.30078125 48.3984375 C-7.52863032 52.60424248 -11.76213869 56.80428507 -16 61 C-19.52344644 59.3413812 -21.79901878 57.43342692 -24.546875 54.6484375 C-25.39121094 53.79765625 -26.23554688 52.946875 -27.10546875 52.0703125 C-27.97816406 51.18085937 -28.85085937 50.29140625 -29.75 49.375 C-31.08224609 48.02921875 -31.08224609 48.02921875 -32.44140625 46.65625 C-34.63216969 44.44192996 -36.81812763 42.22307565 -39 40 C-34.62970634 34.77051256 -30.03088196 29.89710045 -25.1953125 25.09765625 C-24.4713327 24.3750914 -23.74735291 23.65252655 -23.00143433 22.9080658 C-20.71164735 20.62383078 -18.41839007 18.34311688 -16.125 16.0625 C-14.56226839 14.50478961 -12.9997661 12.94684913 -11.4375 11.38867188 C-7.6276469 7.58978398 -3.81494621 3.79377287 0 0 Z " fill="black" transform="translate(203,62)"/>
<path d="M0 0 C3.52344644 1.6586188 5.79901878 3.56657308 8.546875 6.3515625 C9.81337891 7.62773438 9.81337891 7.62773438 11.10546875 8.9296875 C12.41451172 10.26386719 12.41451172 10.26386719 13.75 11.625 C14.63816406 12.5221875 15.52632812 13.419375 16.44140625 14.34375 C18.63216969 16.55807004 20.81812763 18.77692435 23 21 C18.62970634 26.22948744 14.03088196 31.10289955 9.1953125 35.90234375 C8.4713327 36.6249086 7.74735291 37.34747345 7.00143433 38.0919342 C4.71164735 40.37616922 2.41839007 42.65688312 0.125 44.9375 C-1.43773161 46.49521039 -3.0002339 48.05315087 -4.5625 49.61132812 C-8.3723531 53.41021602 -12.18505379 57.20622713 -16 61 C-19.76672156 57.81597912 -23.49002591 54.63838094 -26.96484375 51.1328125 C-27.61904297 50.47539063 -28.27324219 49.81796875 -28.94726562 49.140625 C-29.60404297 48.47546875 -30.26082031 47.8103125 -30.9375 47.125 C-31.62134766 46.43664062 -32.30519531 45.74828125 -33.00976562 45.0390625 C-34.67551464 43.36166489 -36.3388622 41.68196209 -38 40 C-36.59490901 36.81740149 -34.93078658 34.68651534 -32.46826172 32.24121094 C-31.74766571 31.52076599 -31.0270697 30.80032104 -30.28463745 30.05804443 C-29.11893723 28.90782806 -29.11893723 28.90782806 -27.9296875 27.734375 C-27.13345978 26.94097717 -26.33723206 26.14757935 -25.51687622 25.33013916 C-22.97424052 22.79869297 -20.42473652 20.27429197 -17.875 17.75 C-16.14928247 16.03431383 -14.42401645 14.31817338 -12.69921875 12.6015625 C-8.47136968 8.39575752 -4.23786131 4.19571493 0 0 Z " fill="black" transform="translate(171,31)"/>
</svg>
