<?xml version="1.0" encoding="UTF-8"?>
<svg version="1.1" xmlns="http://www.w3.org/2000/svg" width="256" height="256">
<path d="M0 0 C1.61669586 -0.01051392 1.61669586 -0.01051392 3.26605225 -0.02124023 C6.80003241 -0.03872865 10.33320034 -0.02722941 13.8671875 -0.01367188 C16.34000806 -0.0163694 18.81282758 -0.02025399 21.28564453 -0.02526855 C26.45680892 -0.03115124 31.62769608 -0.02263992 36.79882812 -0.00390625 C43.40945506 0.018882 50.01943227 0.00575239 56.6300354 -0.01819611 C61.73287809 -0.03268705 66.8355681 -0.02803288 71.93841553 -0.01768494 C74.37514321 -0.01502678 76.81188499 -0.01825513 79.24859619 -0.02760315 C82.66089315 -0.03782269 86.07215466 -0.02219081 89.484375 0 C90.47999451 -0.00809692 91.47561401 -0.01619385 92.50140381 -0.02453613 C101.43003046 0.08240954 109.49238837 2.49821495 116.140625 8.67382812 C121.19836328 14.49639512 124.8804146 20.8378142 124.85571289 28.64355469 C124.85563736 29.44408264 124.85556183 30.2446106 124.85548401 31.06939697 C124.85032272 31.923703 124.84516144 32.77800903 124.83984375 33.65820312 C124.83772133 34.98147614 124.83772133 34.98147614 124.83555603 36.33148193 C124.82996751 39.14354878 124.81741711 41.95553542 124.8046875 44.76757812 C124.79967102 46.67643114 124.79510837 48.58528541 124.79101562 50.49414062 C124.78000184 55.1686506 124.76274508 59.84310077 124.7421875 64.51757812 C125.90153809 64.49663086 127.06088867 64.47568359 128.25537109 64.45410156 C132.59769107 64.38115582 136.939958 64.33558186 141.28271484 64.29785156 C143.15455259 64.2778595 145.02632888 64.25065644 146.89794922 64.21582031 C170.57315489 63.78650992 170.57315489 63.78650992 180.140625 72.67382812 C186.14906518 79.59086169 188.84290961 85.99718873 188.91918945 95.05517578 C188.92576065 95.70293976 188.93233185 96.35070374 188.93910217 97.01809692 C188.95876477 99.1559462 188.97048475 101.29372529 188.98046875 103.43164062 C188.98454428 104.16570507 188.9886198 104.89976952 188.99281883 105.65607834 C189.01365415 109.54496729 189.02796425 113.43382128 189.03735352 117.32275391 C189.04838555 121.31716116 189.08275489 125.31100639 189.12252522 129.30521584 C189.14881836 132.39554802 189.15705673 135.48574915 189.16063499 138.57618332 C189.16547181 140.04723258 189.17700182 141.51827714 189.19567299 142.98921585 C189.34905487 155.87857911 187.32398996 164.83741195 178.234375 174.31445312 C173.04185021 178.90471015 167.9429385 181.35946798 161.0703125 182.07006836 C159.85456543 182.19791969 159.85456543 182.19791969 158.61425781 182.32835388 C157.99647461 182.39079788 157.37869141 182.45324188 156.7421875 182.51757812 C156.75266113 183.71882324 156.76313477 184.92006836 156.77392578 186.15771484 C156.81006037 190.60429924 156.83306407 195.05087061 156.85205078 199.49755859 C156.86212332 201.42401307 156.87578193 203.3504522 156.89306641 205.27685547 C156.91725991 208.04203064 156.92865786 210.80700412 156.9375 213.57226562 C156.94782257 214.43689423 156.95814514 215.30152283 156.96878052 216.19235229 C156.96917856 218.30211333 156.86483993 220.41138531 156.7421875 222.51757812 C154.7421875 224.51757812 154.7421875 224.51757812 151.546875 225.07226562 C146.1707823 224.28848209 144.27667925 221.66075388 140.8671875 217.64257812 C139.95102661 216.61136841 139.95102661 216.61136841 139.01635742 215.55932617 C137.79657288 214.1835845 136.58469232 212.8007888 135.38134766 211.41064453 C133.30881174 209.01707237 131.18346234 206.67364827 129.0546875 204.33007812 C128.36761719 203.56050781 127.68054688 202.7909375 126.97265625 201.99804688 C125.27841334 200.11390634 123.57357972 198.2430373 121.85546875 196.38085938 C121.35942139 195.84291748 120.86337402 195.30497559 120.35229492 194.75073242 C119.38916028 193.70779836 118.42456596 192.66620966 117.45825195 191.6262207 C115.60239619 189.61539877 113.86340123 187.71331179 112.41918945 185.38122559 C110.88097469 183.30189639 110.88097469 183.30189639 108.36743164 183.0255127 C107.43020264 183.02869507 106.49297363 183.03187744 105.52734375 183.03515625 C103.92922852 183.02494446 103.92922852 183.02494446 102.29882812 183.01452637 C101.14576172 183.02584595 99.99269531 183.03716553 98.8046875 183.04882812 C97.61423828 183.04177856 96.42378906 183.034729 95.19726562 183.02746582 C90.09998536 182.99795841 85.00308451 183.01452899 79.90576172 183.02685547 C76.18434187 183.02925113 72.46353146 183.00822427 68.7421875 182.98632812 C67.03687866 183.0033075 67.03687866 183.0033075 65.29711914 183.02062988 C54.33121352 182.95217904 45.65224284 180.3353058 37.68359375 172.66601562 C30.4488276 164.65973518 28.4794999 156.72511955 28.1171875 146.14257812 C28.05917969 144.75232422 28.05917969 144.75232422 28 143.33398438 C27.90631159 141.06204043 27.82059402 138.79009217 27.7421875 136.51757812 C22.37135142 141.81121269 22.37135142 141.81121269 17.3046875 147.39257812 C16.72847656 148.05 16.15226562 148.70742187 15.55859375 149.38476562 C14.26377987 150.90512773 13.0041899 152.45578497 11.76953125 154.02539062 C6.61411116 160.36288199 6.61411116 160.36288199 1.8671875 161.20507812 C-1.2578125 160.51757812 -1.2578125 160.51757812 -3.2578125 158.51757812 C-3.43327732 155.50448862 -3.48908695 152.58447359 -3.453125 149.57226562 C-3.4502951 148.68725372 -3.44746521 147.80224182 -3.44454956 146.89041138 C-3.4333349 144.057664 -3.4082282 141.22523029 -3.3828125 138.39257812 C-3.37278435 136.47461393 -3.36365822 134.5566448 -3.35546875 132.63867188 C-3.33339139 127.93151937 -3.29885295 123.22460196 -3.2578125 118.51757812 C-4.1844873 118.42391212 -4.1844873 118.42391212 -5.12988281 118.32835388 C-6.34562988 118.20050255 -6.34562988 118.20050255 -7.5859375 118.07006836 C-8.7910498 117.94546486 -8.7910498 117.94546486 -10.02050781 117.81834412 C-18.23491685 116.7140623 -23.8764706 111.4048446 -29.25 105.50585938 C-35.34889179 96.42871498 -35.88256307 87.50989426 -35.859375 76.86914062 C-35.8671705 75.3651788 -35.8758442 73.8612213 -35.88534546 72.35726929 C-35.9001865 69.21882804 -35.89974924 66.08083706 -35.88916016 62.94238281 C-35.87758162 58.95235995 -35.91143979 54.96419734 -35.9578495 50.97448158 C-35.98754558 47.8719739 -35.98903819 44.76990296 -35.98283005 41.66727829 C-35.98384548 40.19788302 -35.99411103 38.72845966 -36.01445389 37.25920486 C-36.14405244 26.59218913 -34.53043825 17.75884324 -27.4491272 9.37661743 C-19.60371919 1.86370781 -10.55128358 -0.08580882 0 0 Z M-21.06640625 20.63867188 C-23.75603173 24.88034354 -24.51195248 28.55226126 -24.54833984 33.54199219 C-24.56109955 34.73383118 -24.57385925 35.92567017 -24.58700562 37.15362549 C-24.58923126 38.43388611 -24.59145691 39.71414673 -24.59375 41.03320312 C-24.60018511 42.37213277 -24.606914 43.71106103 -24.61392212 45.04998779 C-24.6258766 47.85415908 -24.62960502 50.65820738 -24.62841797 53.46240234 C-24.62821528 57.03433775 -24.65547256 60.60547307 -24.68996239 64.17721939 C-24.71233957 66.94327322 -24.71625218 69.7091381 -24.71519852 72.47527313 C-24.71866953 74.42549041 -24.74026927 76.37564869 -24.76229858 78.32574463 C-24.71749542 87.09557853 -23.10222545 92.94620017 -18.5078125 100.33007812 C-12.70558856 105.97112918 -6.82534513 106.98011865 1.10546875 107.24414062 C3.7421875 107.51757812 3.7421875 107.51757812 6.7421875 109.51757812 C7.17456055 112.49853516 7.17456055 112.49853516 7.25390625 116.27539062 C7.28083305 117.2699678 7.28083305 117.2699678 7.30830383 118.28463745 C7.36251674 120.40388616 7.39633521 122.52290837 7.4296875 124.64257812 C7.46285117 126.07880765 7.49733995 127.51500723 7.53320312 128.95117188 C7.61824714 132.47308942 7.68500623 135.99508571 7.7421875 139.51757812 C12.25841869 135.83085878 16.16535228 132.04866725 19.94335938 127.61425781 C23.02110345 124.02689814 26.26228509 120.59255404 29.4921875 117.14257812 C30.15089844 116.43230469 30.80960938 115.72203125 31.48828125 114.99023438 C32.12378906 114.31089844 32.75929687 113.6315625 33.4140625 112.93164062 C33.9822168 112.32271973 34.55037109 111.71379883 35.13574219 111.08642578 C38.5286636 107.77291317 40.71532595 107.26587841 45.31176758 107.24633789 C46.45337845 107.23615128 47.59498932 107.22596466 48.77119446 107.21546936 C50.00556747 107.21332932 51.23994049 107.21118927 52.51171875 107.20898438 C55.11784076 107.18382239 57.7239605 107.15842439 60.33007812 107.1328125 C64.4447121 107.10204586 68.5593672 107.07984978 72.67407227 107.0612793 C76.64096478 107.04229872 80.60749464 107.00018057 84.57421875 106.95898438 C85.80251907 106.95886856 87.0308194 106.95875275 88.29634094 106.95863342 C95.5122169 106.87501455 100.46846263 106.48086357 106.0078125 101.46679688 C106.66265625 100.72042969 107.3175 99.9740625 107.9921875 99.20507812 C108.65734375 98.46644531 109.3225 97.7278125 110.0078125 96.96679688 C113.19032641 92.47257116 113.99152686 88.00688359 114.03271484 82.57910156 C114.04547455 81.4306073 114.05823425 80.28211304 114.07138062 79.09881592 C114.07360626 77.8706012 114.07583191 76.64238647 114.078125 75.37695312 C114.0847818 74.0995929 114.0914386 72.82223267 114.09829712 71.50616455 C114.11023823 68.80632143 114.11398139 66.10660592 114.11279297 63.40673828 C114.11259031 59.97280019 114.13984995 56.53969464 114.17433739 53.10595322 C114.20213412 49.80044326 114.20076046 46.49507808 114.203125 43.18945312 C114.22468155 41.35927643 114.22468155 41.35927643 114.24667358 39.49212646 C114.20448377 31.53102685 113.52127001 23.77523674 108.02133179 17.57879639 C101.7202043 11.63165176 94.95060401 11.21902625 86.65698242 11.22705078 C85.15579613 11.21697495 85.15579613 11.21697495 83.62428284 11.20669556 C80.3236898 11.18773517 77.02330033 11.18379228 73.72265625 11.18164062 C71.42108579 11.17521122 69.11951614 11.16848276 66.81794739 11.16146851 C61.99539292 11.14950054 57.17291006 11.14578718 52.3503418 11.14697266 C46.18345291 11.14717579 40.01702515 11.11987721 33.85024548 11.08542824 C29.09660246 11.06314495 24.34307016 11.05913557 19.58938026 11.06019211 C17.31648482 11.05783818 15.04358623 11.04902646 12.77074242 11.03352737 C9.58536246 11.01383966 6.40097352 11.01971701 3.21557617 11.03173828 C2.28488312 11.02049927 1.35419006 11.00926025 0.39529419 10.99768066 C-8.55629034 11.08313463 -15.34643597 13.61500467 -21.06640625 20.63867188 Z M124.7421875 75.51757812 C124.68957764 76.68603271 124.63696777 77.8544873 124.58276367 79.05834961 C124.50476659 80.60597583 124.42637675 82.15358229 124.34765625 83.70117188 C124.29732239 84.85377502 124.29732239 84.85377502 124.24597168 86.02966309 C123.9356719 91.90015682 122.93754997 96.4992204 119.7421875 101.51757812 C119.319375 102.21109375 118.8965625 102.90460938 118.4609375 103.61914062 C113.95503793 110.30289165 107.80553137 114.9399773 99.9931488 117.09762573 C95.09922523 118.01066449 90.09413452 117.79528898 85.1328125 117.79101562 C82.66275575 117.81128774 80.19270368 117.83213817 77.72265625 117.85351562 C73.8425701 117.87619754 69.96266917 117.89262236 66.08251953 117.8984375 C62.32811399 117.90791713 58.57453431 117.94161933 54.8203125 117.97851562 C53.65469788 117.97347015 52.48908325 117.96842468 51.28814697 117.96322632 C50.20982605 117.97648956 49.13150513 117.98975281 48.02050781 118.00341797 C46.59656708 118.00769302 46.59656708 118.00769302 45.14385986 118.01205444 C42.60816532 118.31398949 42.60816532 118.31398949 40.93754578 120.35813904 C38.48096396 124.79600415 39.26486875 130.1910385 39.29614258 135.14233398 C39.30459138 137.18187495 39.27598478 139.21855246 39.24414062 141.2578125 C39.2486867 150.4727033 40.0969303 157.32553234 46.2421875 164.39257812 C51.35575096 168.73910707 54.43904073 170.64993122 61.2800293 170.61181641 C62.98276253 170.60784348 62.98276253 170.60784348 64.71989441 170.60379028 C65.94799332 170.5985434 67.17609222 170.59329651 68.44140625 170.58789062 C71.03841816 170.59647654 73.63542437 170.60695308 76.23242188 170.61914062 C80.32960716 170.63739033 84.42604163 170.64621057 88.52319336 170.6171875 C92.4755336 170.59019427 96.4265817 170.61949385 100.37890625 170.65039062 C101.596884 170.63299835 102.81486176 170.61560608 104.06974792 170.59768677 C109.91549971 170.68029687 113.81083928 170.9246802 118.34106445 174.83007812 C119.50286931 176.03272241 120.64108984 177.25911567 121.7421875 178.51757812 C122.45439453 179.21737793 123.16660156 179.91717773 123.90039062 180.63818359 C124.43599609 181.21455566 124.97160156 181.79092773 125.5234375 182.38476562 C126.13429199 183.03896484 126.74514648 183.69316406 127.37451172 184.3671875 C127.99084473 185.03556641 128.60717773 185.70394531 129.2421875 186.39257812 C129.89074707 187.08931641 130.53930664 187.78605469 131.20751953 188.50390625 C135.35615638 192.97374801 139.44012445 197.49180801 143.421875 202.11132812 C143.85757813 202.57539063 144.29328125 203.03945312 144.7421875 203.51757812 C145.0721875 203.51757812 145.4021875 203.51757812 145.7421875 203.51757812 C145.75677002 202.6192627 145.77135254 201.72094727 145.78637695 200.79541016 C145.84738447 197.46651223 145.92152378 194.13844929 146.00463867 190.81005859 C146.03791928 189.3687647 146.06594154 187.92733949 146.08862305 186.48583984 C146.1221137 184.41512016 146.1744205 182.3456072 146.23046875 180.27539062 C146.25665283 179.02902832 146.28283691 177.78266602 146.30981445 176.49853516 C146.45249756 175.51481934 146.59518066 174.53110352 146.7421875 173.51757812 C150.12094402 171.26507378 151.58165713 171.24499637 155.5546875 171.08007812 C164.32689072 170.41663418 168.18286527 167.43125591 174.0078125 161.06445312 C178.66050916 154.23211479 178.06336945 146.46160325 178.078125 138.49804688 C178.0847818 137.24429764 178.0914386 135.9905484 178.09829712 134.69880676 C178.108401 132.05190783 178.1139828 129.40541999 178.11279297 126.75854492 C178.1126304 124.06133209 178.12652334 121.36479827 178.15380859 118.66772461 C178.19060727 114.75678983 178.20027267 110.84663796 178.203125 106.93554688 C178.22468155 105.14288643 178.22468155 105.14288643 178.24667358 103.31401062 C178.20397496 95.41822528 177.47045201 87.72013205 172.02133179 81.57780457 C166.22428011 76.10989383 160.07156174 75.21596386 152.28125 75.32226562 C151.49068207 75.32509552 150.70011414 75.32792542 149.8855896 75.33084106 C147.37929666 75.34196857 144.87337105 75.36705887 142.3671875 75.39257812 C140.66016144 75.40261755 138.95312973 75.41174171 137.24609375 75.41992188 C133.0779851 75.44188349 128.91014842 75.47636141 124.7421875 75.51757812 Z " fill="#F4F4F4" transform="translate(51.2578125,15.482421875)"/>
<path d="M0 0 C0.89872833 -0.00708481 1.79745667 -0.01416962 2.72341919 -0.02146912 C3.71204453 -0.0189917 4.70066986 -0.01651428 5.71925354 -0.01396179 C6.75835876 -0.01907272 7.79746399 -0.02418365 8.86805725 -0.02944946 C12.31664221 -0.04339508 15.76502843 -0.04238495 19.21363831 -0.04008484 C21.60256017 -0.04396904 23.99148134 -0.04830313 26.38040161 -0.05307007 C31.39327735 -0.06054299 36.40608267 -0.06023324 41.41896057 -0.05497742 C47.85327613 -0.04918147 54.28730396 -0.06611188 60.72157192 -0.08932209 C65.6568369 -0.10403063 70.59203213 -0.10493505 75.52731514 -0.10181236 C77.90005628 -0.10232703 80.27280118 -0.10759179 82.64552116 -0.11762428 C85.95935309 -0.12991545 89.27261866 -0.12324082 92.58644104 -0.11161804 C94.0663427 -0.12308365 94.0663427 -0.12308365 95.57614136 -0.13478088 C96.47768951 -0.12776657 97.37923767 -0.12075226 98.30810547 -0.11352539 C99.48364314 -0.113777 99.48364314 -0.113777 100.68292904 -0.1140337 C103.28389672 0.36500566 104.1954785 1.11611101 105.71754456 3.26069641 C105.27310011 9.70514086 105.27310011 9.70514086 103.71754456 11.26069641 C102.30549567 11.36267853 100.8884038 11.39587607 99.47268677 11.40113831 C98.55705963 11.40684845 97.6414325 11.41255859 96.69805908 11.41844177 C95.68556595 11.41955963 94.67307281 11.42067749 93.62989807 11.42182922 C92.03978912 11.42927658 92.03978912 11.42927658 90.41755676 11.43687439 C86.8938483 11.45153775 83.37018483 11.4583045 79.84645081 11.46382141 C77.40886432 11.46956886 74.97127785 11.47532664 72.53369141 11.48109436 C67.41650684 11.49161587 62.29933804 11.49745119 57.18214417 11.50093079 C50.60983925 11.50642177 44.03774086 11.53045804 37.46550083 11.55890274 C32.42906069 11.57748104 27.39267079 11.58273212 22.35619926 11.58426666 C19.93238634 11.58730397 17.50857452 11.59536844 15.084795 11.60845184 C11.70122966 11.62541398 8.31817559 11.62365628 4.93458557 11.61714172 C3.92411667 11.62635651 2.91364777 11.63557129 1.87255859 11.64506531 C0.95411163 11.63949615 0.03566467 11.633927 -0.91061401 11.62818909 C-1.71127509 11.62965565 -2.51193617 11.63112221 -3.3368597 11.63263321 C-4.29992959 11.44852449 -4.29992959 11.44852449 -5.28245544 11.26069641 C-7.28245544 8.26069641 -7.28245544 8.26069641 -7.03245544 5.19819641 C-5.87171379 0.65195828 -4.40966133 0.01155661 0 0 Z " fill="#F4F4F4" transform="translate(113.28245544433594,148.7393035888672)"/>
<path d="M0 0 C4.60796478 1.27454345 6.73554767 4.40331451 9.75 7.9375 C12.39988607 10.20883092 14.94736941 11.10891303 18.23046875 12.19921875 C19.9375 12.8125 19.9375 12.8125 20.9375 13.8125 C21.64759695 19.72997458 21.64759695 19.72997458 19.8203125 22.515625 C19.36398438 23.06734375 18.90765625 23.6190625 18.4375 24.1875 C15.54119861 27.77147071 15.69714613 30.31943978 15.93359375 34.7890625 C15.9375 36.8125 15.9375 36.8125 14.875 39.375 C10.99383037 42.25457747 6.20663352 40.86586718 1.6875 40.25 C-1.98904702 39.55244264 -1.98904702 39.55244264 -5.0625 40.8125 C-8.5625 41.125 -8.5625 41.125 -12.0625 40.8125 C-15.06022223 37.83554721 -15.40267533 35.50271093 -15.5 31.375 C-15.80064092 26.56474526 -16.63935669 24.34261654 -20.0625 20.8125 C-21.3523878 18.06073937 -21.17792593 17.15053308 -20.1875 14.25 C-17.8519486 11.57098516 -17.05065922 11.36830158 -13.75 10.5 C-9.71016129 9.38871751 -8.18531909 8.10881451 -5.875 4.625 C-3.3859601 0.89831594 -3.3859601 0.89831594 0 0 Z M-0.0625 16.8125 C-1.7125 18.4625 -3.3625 20.1125 -5.0625 21.8125 C-4.4025 23.4625 -3.7425 25.1125 -3.0625 26.8125 C-0.7525 26.8125 1.5575 26.8125 3.9375 26.8125 C4.2675 24.5025 4.5975 22.1925 4.9375 19.8125 C3.9475 19.4825 2.9575 19.1525 1.9375 18.8125 C1.2775 18.1525 0.6175 17.4925 -0.0625 16.8125 Z " fill="#F5F5F5" transform="translate(139.0625,52.1875)"/>
<path d="M0 0 C1.375 1.64453125 1.375 1.64453125 2.75 3.75 C5.73223124 8.2630042 8.71420669 9.46902523 13.828125 10.91796875 C16 12 16 12 17.41015625 14.37890625 C18 17 18 17 17.35546875 18.984375 C14.11111111 23.88888889 14.11111111 23.88888889 13 25 C12.75507797 27.74403381 12.61614703 30.4869967 12.4765625 33.23828125 C11.94197934 36.3362345 11.21049965 37.78429918 9 40 C5.14744897 40.37770108 1.56077457 39.95683208 -2.25 39.4375 C-5.92654702 38.73994264 -5.92654702 38.73994264 -9 40 C-15.24809425 40.55786556 -15.24809425 40.55786556 -17.9375 38.5625 C-19.06125602 35.85226489 -19.0268944 34.55879412 -18.875 31.6875 C-18.67768307 27.05055204 -20.01903573 25.19447038 -22.8671875 21.6953125 C-24.8447158 18.73583911 -24.65119103 16.38619334 -24 13 C-21.34022625 10.74322227 -18.71094683 9.89350673 -15.4375 8.6875 C-11.43078627 6.72056781 -10.22339779 4.78801105 -8 1 C-4.97599876 -0.51200062 -3.36096166 -0.5817049 0 0 Z M-4 16 C-4.33 16.66 -4.66 17.32 -5 18 C-5.99 18.33 -6.98 18.66 -8 19 C-7.67 21.31 -7.34 23.62 -7 26 C-4.69 26 -2.38 26 0 26 C0.66 24.02 1.32 22.04 2 20 C0.02 18.68 -1.96 17.36 -4 16 Z " fill="#F5F5F5" transform="translate(56,53)"/>
<path d="M0 0 C3.65522085 0.95035742 3.87677482 1.54258341 5.875 4.5625 C8.86102239 9.05741668 11.90666029 10.38715955 16.953125 12.0234375 C19.125 12.8125 19.125 12.8125 21.125 14.8125 C20.97625544 18.75423079 20.78667128 21.0681198 18.125 24.0625 C15.44259284 27.75080984 15.55774902 30.81608515 15.3984375 35.2890625 C15.125 37.8125 15.125 37.8125 13.125 40.8125 C11.25 41.140625 11.25 41.140625 9.125 41.0625 C8.42375 41.04703125 7.7225 41.0315625 7 41.015625 C5.125 40.8125 5.125 40.8125 3.125 39.8125 C-1.02003661 39.56462983 -1.02003661 39.56462983 -4.875 40.8125 C-6.75 40.98046875 -6.75 40.98046875 -8.875 41 C-9.57625 41.01417969 -10.2775 41.02835938 -11 41.04296875 C-12.875 40.8125 -12.875 40.8125 -14.875 38.8125 C-15.05000341 36.92188938 -15.14224916 35.0231536 -15.1875 33.125 C-15.5676341 27.01361329 -17.13395782 24.51278377 -20.875 19.8125 C-21.375 17.0625 -21.375 17.0625 -20.875 14.8125 C-18.08415381 11.26926268 -15.19743177 11.14427597 -10.93359375 10.53515625 C-8.7158261 9.99916637 -8.7158261 9.99916637 -7.70703125 7.91796875 C-7.29517578 6.87576172 -7.29517578 6.87576172 -6.875 5.8125 C-4.79740449 2.54770705 -3.76699082 1.06458436 0 0 Z M-3 19.8125 C-3.61875 20.4725 -4.2375 21.1325 -4.875 21.8125 C-4.215 23.4625 -3.555 25.1125 -2.875 26.8125 C-0.895 26.8125 1.085 26.8125 3.125 26.8125 C3.785 24.8325 4.445 22.8525 5.125 20.8125 C1.126714 17.30740703 1.126714 17.30740703 -3 19.8125 Z " fill="#F5F5F5" transform="translate(95.875,52.1875)"/>
<path d="M0 0 C1.21720482 0.00136711 1.21720482 0.00136711 2.45899963 0.00276184 C3.29250443 -0.00152328 4.12600922 -0.00580841 4.98477173 -0.01022339 C6.74920238 -0.01597126 8.51365674 -0.01646359 10.27809143 -0.01213074 C12.98008121 -0.00897336 15.68097367 -0.03241436 18.38282776 -0.05778503 C20.095717 -0.06005822 21.80860919 -0.06076143 23.52149963 -0.05973816 C24.33094528 -0.06894791 25.14039093 -0.07815765 25.97436523 -0.08764648 C31.62472031 -0.04097553 31.62472031 -0.04097553 33.77053833 1.67056274 C35.05665588 3.30354309 35.05665588 3.30354309 35.43165588 5.80354309 C35.05665588 8.30354309 35.05665588 8.30354309 34.05079651 9.93708801 C30.88402203 12.10707292 27.48085728 11.71032862 23.77540588 11.66682434 C22.96551208 11.66732285 22.15561829 11.66782135 21.32118225 11.66833496 C19.60977219 11.66599567 17.89835861 11.65627564 16.18702698 11.63972473 C13.56643431 11.61613113 10.94685903 11.61916476 8.32618713 11.62580872 C6.66342065 11.62023185 5.00065845 11.61312192 3.33790588 11.60432434 C2.55347107 11.60523575 1.76903625 11.60614716 0.96083069 11.60708618 C-2.86174058 11.55723137 -4.68809379 11.47370998 -7.94334412 9.30354309 C-8.25584412 5.80354309 -8.25584412 5.80354309 -7.94334412 2.30354309 C-5.34877409 -0.29102694 -3.53646636 0.04488907 0 0 Z " fill="#F4F4F4" transform="translate(183.94334411621094,127.69645690917969)"/>
<path d="M0 0 C1.14533203 -0.01611328 2.29066406 -0.03222656 3.47070312 -0.04882812 C5.12295898 -0.04979492 5.12295898 -0.04979492 6.80859375 -0.05078125 C7.81591553 -0.05376221 8.8232373 -0.05674316 9.86108398 -0.05981445 C12.97456105 0.36929106 14.34763079 1.10668823 16.5625 3.3125 C17.0625 6.3125 17.0625 6.3125 16.5625 9.3125 C12.6408855 13.20265464 8.76268966 12.73143675 3.51953125 12.77148438 C2.37871094 12.76439453 1.23789063 12.75730469 0.0625 12.75 C-1.07832031 12.76998047 -2.21914062 12.78996094 -3.39453125 12.81054688 C-4.49152344 12.80990234 -5.58851563 12.80925781 -6.71875 12.80859375 C-7.71970703 12.81044678 -8.72066406 12.8122998 -9.75195312 12.81420898 C-13.15739906 12.17800977 -14.36702785 11.04711495 -16.4375 8.3125 C-16.375 5.1875 -16.375 5.1875 -15.4375 2.3125 C-10.67755468 -0.86079688 -5.59576653 -0.015692 0 0 Z " fill="#F4F4F4" transform="translate(202.4375,105.6875)"/>
</svg>
