<svg xmlns="http://www.w3.org/2000/svg" width="12" height="10" viewBox="0 0 12 10" fill="none">
  <path d="M11.4001 1.45717C11.6667 2.49667 11.6667 4.66667 11.6667 4.66667C11.6667 4.66667 11.6667 6.83667 11.4001 7.87617C11.2519 8.45075 10.8185 8.90283 10.2696 9.05567C9.27267 9.33333 5.83333 9.33333 5.83333 9.33333C5.83333 9.33333 2.39575 9.33333 1.39708 9.05567C0.845833 8.9005 0.413 8.449 0.266583 7.87617C1.73847e-08 6.83667 0 4.66667 0 4.66667C0 4.66667 1.73847e-08 2.49667 0.266583 1.45717C0.41475 0.882583 0.848167 0.4305 1.39708 0.277667C2.39575 -1.04308e-07 5.83333 0 5.83333 0C5.83333 0 9.27267 -1.04308e-07 10.2696 0.277667C10.8208 0.432833 11.2537 0.884333 11.4001 1.45717ZM4.66667 6.70833L8.16667 4.66667L4.66667 2.625V6.70833Z" fill="#2B2B2B"/>
</svg>